<?xml version="1.0" encoding="utf-8"?>
<!-- Generator: Adobe Illustrator 13.0.0, SVG Export Plug-In . SVG Version: 6.00 Build 14948)  -->
<!DOCTYPE svg PUBLIC "-//W3C//DTD SVG 1.1//EN" "http://www.w3.org/Graphics/SVG/1.1/DTD/svg11.dtd">
<svg version="1.1" id="Layer_1" xmlns="http://www.w3.org/2000/svg" xmlns:xlink="http://www.w3.org/1999/xlink" x="0px" y="0px"
	 width="250px" height="250px" viewBox="0 0 250 250" enable-background="new 0 0 250 250" xml:space="preserve">
<g>
	<path fill="#4CB648" d="M55.629,51.648V26.246c0-3.511,2.84-6.351,6.351-6.351c3.509,0,6.35,2.84,6.35,6.351v25.402
		c0,3.51-2.84,6.35-6.35,6.35C58.469,57.998,55.629,55.158,55.629,51.648z M163.586,57.998c3.509,0,6.352-2.84,6.352-6.35V26.246
		c0-3.511-2.843-6.351-6.352-6.351c-3.51,0-6.353,2.84-6.353,6.351v25.402C157.233,55.158,160.076,57.998,163.586,57.998z
		 M233.438,172.303c0,28.059-22.747,50.805-50.802,50.805c-28.056,0-50.803-22.746-50.803-50.805
		c0-28.055,22.747-50.803,50.803-50.803C210.691,121.5,233.438,144.248,233.438,172.303z M220.74,172.303
		c0-21.008-17.093-38.102-38.104-38.102c-21.01,0-38.102,17.094-38.102,38.102c0,21.012,17.092,38.104,38.102,38.104
		C203.647,210.406,220.74,193.314,220.74,172.303z M81.032,96.1H55.629v25.4h25.402V96.1z M55.629,159.604h25.402v-25.402H55.629
		V159.604z M93.731,121.5h25.403V96.1H93.731V121.5z M93.731,159.604h25.403v-25.402H93.731V159.604z M42.93,171.039V83.398h139.707
		v25.403h12.701V59.264c0-7.715-6.154-13.967-13.755-13.967h-5.296v6.352c0,6.994-5.695,12.7-12.7,12.7
		c-7.007,0-12.7-5.706-12.7-12.7v-6.352H74.68v6.352c0,6.994-5.693,12.7-12.699,12.7c-7.008,0-12.701-5.706-12.701-12.7v-6.352
		h-5.291c-7.602,0-13.761,6.252-13.761,13.967v111.777c0,7.688,6.159,13.965,13.761,13.965h75.145v-12.703H43.989
		C43.414,172.303,42.93,171.709,42.93,171.039z M157.233,121.5V96.1h-25.399v25.4H157.233z M201.688,172.303h-19.051v-19.051
		c0-3.51-2.841-6.35-6.352-6.35c-3.51,0-6.348,2.84-6.348,6.35v25.402c0,3.51,2.838,6.352,6.348,6.352h25.402
		c3.511,0,6.351-2.842,6.351-6.352S205.198,172.303,201.688,172.303z"/>
</g>
</svg>
