<?xml version="1.0" encoding="utf-8"?>
<!-- Generator: Adobe Illustrator 13.0.0, SVG Export Plug-In . SVG Version: 6.00 Build 14948)  -->
<!DOCTYPE svg PUBLIC "-//W3C//DTD SVG 1.1//EN" "http://www.w3.org/Graphics/SVG/1.1/DTD/svg11.dtd">
<svg version="1.1" id="Layer_1" xmlns="http://www.w3.org/2000/svg" xmlns:xlink="http://www.w3.org/1999/xlink" x="0px" y="0px"
	 width="250px" height="250px" viewBox="0 0 250 250" enable-background="new 0 0 250 250" xml:space="preserve">
<g>
	<path fill="#4CB648" d="M230.5,211.25v12.25h-196v-196h12.25v183.75H230.5z M122.128,95.533l50.042,12.501l17.321-28.854
		l15.695,9.427L206,39.75l-42.72,23.71l15.695,9.427L166.33,93.966l-47.958-11.999L66.919,133.42l8.661,8.66L122.128,95.533z
		 M108,199h24.5v-88.25l-6.615-1.65L108,126.983V199z M71.25,155.072V199h24.5v-59.767l-20.169,20.169L71.25,155.072z
		 M181.5,116.312V199H206v-95.62L193.69,96L181.5,116.312z M169.25,199v-79.063l-24.5-6.125V199H169.25z"/>
</g>
</svg>
