<?xml version="1.0" encoding="utf-8"?>
<!-- Generator: Adobe Illustrator 13.0.0, SVG Export Plug-In . SVG Version: 6.00 Build 14948)  -->
<!DOCTYPE svg PUBLIC "-//W3C//DTD SVG 1.1//EN" "http://www.w3.org/Graphics/SVG/1.1/DTD/svg11.dtd">
<svg version="1.1" id="Capa_1" xmlns="http://www.w3.org/2000/svg" xmlns:xlink="http://www.w3.org/1999/xlink" x="0px" y="0px"
	 width="250px" height="250px" viewBox="0 0 250 250" enable-background="new 0 0 250 250" xml:space="preserve">
<g>
	<path fill="#4CB648" d="M101.522,129.33c0.356,1.135,0.795,2.295,1.309,3.447c1.046,2.733,2.555,5.568,4.37,8.191
		c0.764,1.111,1.769,2.451,2.96,3.778c-1.083,0.77-1.858,1.681-2.207,2.741l-14.451,4.379c-6.993,2.008-12.059,23.403-14.543,36.587
		c13.168,8.009,28.582,12.611,44.966,12.611c0.004,0,0.006,0,0.008,0c1.922-0.002,3.871-0.066,5.791-0.192
		c14.171-0.934,27.608-5.229,39.418-12.43c-2.476-13.397-7.594-34.549-14.646-36.575l-14.452-4.38
		c-0.348-1.06-1.124-1.972-2.205-2.741c1.19-1.326,2.196-2.665,2.96-3.777c1.814-2.624,3.324-5.458,4.37-8.193
		c0.513-1.149,0.951-2.308,1.31-3.442c1.405-1.18,2.233-2.938,2.233-4.787v-4.524c0-1.299-0.409-2.57-1.16-3.623v-6.372
		c0-11.176-9.092-20.269-20.269-20.269h-6.569c-11.175,0-20.268,9.093-20.268,20.269v6.373c-0.751,1.052-1.161,2.324-1.161,3.622
		v4.524C99.287,126.393,100.115,128.152,101.522,129.33z M120.111,163.245c-0.055,0.53-0.43,0.977-0.944,1.119
		c-0.116,0.034-0.232,0.05-0.349,0.05c-0.401,0-0.787-0.19-1.037-0.521l-3.649-4.839c-0.17-0.227-0.262-0.5-0.262-0.783l0.005-7.763
		c0-0.459,0.238-0.88,0.627-1.115c0.391-0.232,0.876-0.248,1.278-0.033c1.062,0.563,2.122,0.938,3.153,1.12
		c0.62,0.109,1.072,0.649,1.072,1.279v3.237c0.184,0.073,0.352,0.191,0.489,0.34c0.247,0.272,0.366,0.639,0.327,1.005
		L120.111,163.245z M134.124,158.271c0,0.282-0.091,0.557-0.26,0.783l-3.646,4.839c-0.249,0.328-0.637,0.514-1.036,0.514
		c-0.117,0-0.233-0.013-0.35-0.047c-0.514-0.142-0.889-0.585-0.943-1.115l-0.711-6.903c-0.039-0.367,0.08-0.732,0.327-1.004
		c0.138-0.149,0.306-0.268,0.489-0.341v-3.237c0-0.631,0.453-1.17,1.072-1.28c1.03-0.182,2.092-0.557,3.152-1.118
		c0.402-0.217,0.888-0.2,1.277,0.032c0.392,0.236,0.629,0.656,0.629,1.114L134.124,158.271L134.124,158.271z M106.231,121.59
		c0-0.719,0.58-1.3,1.298-1.3h0.531v-2.316c0-0.492,0.279-0.942,0.719-1.162c1.79-0.892,5.339-2.389,9.014-2.389
		c2.932,0,5.363,0.971,7.225,2.898c2.322,2.399,4.997,3.615,7.95,3.615c1.673,0,3.402-0.395,5.14-1.174
		c0.402-0.179,0.867-0.144,1.237,0.095c0.174,0.108,0.315,0.263,0.416,0.432h0.71c0.716,0,1.298,0.581,1.298,1.3v2.138
		c0,0.439-0.224,0.85-0.591,1.09l-1.262,0.816l-0.069,0.539c-0.411,3.104-2.152,7.13-4.661,10.763
		c-3.179,4.609-6.154,6.671-7.695,6.671h-6.982c-1.541,0-4.518-2.061-7.695-6.671c-2.509-3.633-4.251-7.657-4.661-10.763l-0.07-0.54
		l-1.262-0.817c-0.367-0.24-0.589-0.65-0.589-1.089v-2.137H106.231z"/>
	<path fill="#4CB648" d="M68.177,71.031c-11.176,0-20.268,9.094-20.268,20.269v6.373c-0.752,1.053-1.161,2.325-1.161,3.622v4.525
		c0,1.846,0.829,3.605,2.235,4.784c0.356,1.136,0.795,2.295,1.309,3.45c1.046,2.733,2.555,5.564,4.37,8.191
		c0.764,1.109,1.77,2.451,2.961,3.775c-1.083,0.77-1.858,1.684-2.206,2.742l-14.452,4.38c-0.566,0.164-1.12,0.459-1.662,0.864
		c4.873,20.647,17.1,38.405,33.667,50.451h1.469c0.584-2.909,1.274-6.082,2.065-9.297c5.577-22.649,11.221-27.027,15.524-28.28
		l10.695-3.241c-1.924-2.828-3.545-5.888-4.7-8.871c-0.381-0.866-0.728-1.738-1.039-2.611c-0.199-0.223-0.383-0.456-0.564-0.693
		l-8.913-2.703c-0.348-1.057-1.123-1.971-2.205-2.74c1.189-1.324,2.196-2.665,2.96-3.775c1.814-2.628,3.323-5.459,4.37-8.193
		c0.513-1.153,0.952-2.309,1.309-3.447c1.406-1.178,2.235-2.938,2.235-4.785v-4.525c0-1.298-0.409-2.569-1.161-3.623v-6.373
		c0-11.175-9.092-20.269-20.267-20.269L68.177,71.031L68.177,71.031z M67.573,144.519c-0.055,0.531-0.43,0.978-0.944,1.117
		c-0.116,0.036-0.231,0.051-0.349,0.051c-0.401,0-0.787-0.188-1.037-0.52l-3.649-4.839c-0.17-0.227-0.262-0.502-0.262-0.784
		l0.005-7.763c0-0.457,0.237-0.879,0.627-1.113c0.392-0.232,0.876-0.25,1.279-0.037c1.062,0.564,2.122,0.939,3.153,1.123
		c0.62,0.109,1.073,0.647,1.073,1.278v3.24c0.184,0.072,0.352,0.19,0.49,0.337c0.246,0.272,0.365,0.64,0.328,1.004L67.573,144.519z
		 M81.586,139.544c0,0.282-0.092,0.558-0.261,0.784l-3.646,4.839c-0.249,0.328-0.637,0.515-1.037,0.515
		c-0.117,0-0.233-0.014-0.349-0.047c-0.514-0.143-0.889-0.585-0.943-1.116l-0.713-6.905c-0.038-0.364,0.082-0.73,0.329-1.004
		c0.137-0.147,0.304-0.265,0.488-0.337v-3.24c0-0.631,0.453-1.169,1.073-1.278c1.031-0.184,2.091-0.559,3.152-1.121
		c0.402-0.215,0.887-0.197,1.278,0.036c0.391,0.235,0.629,0.655,0.629,1.112V139.544z M85.57,101.036
		c0.402-0.18,0.868-0.143,1.238,0.094c0.173,0.111,0.314,0.263,0.416,0.435h0.709c0.716,0,1.297,0.582,1.297,1.299V105
		c0,0.442-0.222,0.85-0.59,1.091l-1.262,0.817l-0.069,0.538c-0.411,3.104-2.153,7.128-4.662,10.763
		c-3.178,4.609-6.154,6.672-7.695,6.672h-6.981c-1.541,0-4.518-2.062-7.694-6.672c-2.509-3.635-4.251-7.657-4.662-10.761l-0.07-0.54
		l-1.261-0.817c-0.367-0.242-0.59-0.65-0.59-1.091v-2.137c0-0.717,0.581-1.299,1.299-1.299h0.53v-2.318
		c0-0.493,0.278-0.943,0.719-1.161c1.789-0.894,5.339-2.391,9.014-2.391c2.931,0,5.363,0.973,7.225,2.899
		c2.322,2.399,4.997,3.614,7.952,3.614C82.103,102.209,83.833,101.815,85.57,101.036z"/>
	<path fill="#4CB648" d="M155.974,146.88c4.327,1.26,9.996,5.599,15.544,27.876c0.825,3.306,1.549,6.62,2.159,9.701h1.441
		c5.172-3.777,9.967-8.156,14.295-13.095c9.541-10.89,16.09-23.672,19.309-37.352c-0.549-0.405-1.111-0.704-1.686-0.869
		l-14.452-4.38c-0.348-1.059-1.123-1.973-2.205-2.742c1.189-1.324,2.195-2.664,2.959-3.774c1.815-2.628,3.323-5.459,4.37-8.193
		c0.513-1.153,0.951-2.309,1.309-3.446c1.406-1.178,2.234-2.938,2.234-4.786v-4.525c0-1.298-0.409-2.569-1.16-3.623V91.3
		c0-11.175-9.093-20.269-20.268-20.269h-6.569c-11.175,0-20.268,9.094-20.268,20.269v6.373c-0.752,1.053-1.16,2.325-1.16,3.622
		v4.525c0,1.846,0.828,3.605,2.234,4.784c0.356,1.136,0.796,2.295,1.31,3.45c1.044,2.733,2.554,5.564,4.369,8.191
		c0.764,1.109,1.77,2.451,2.96,3.775c-1.083,0.77-1.857,1.684-2.206,2.742l-8.911,2.701c-0.181,0.238-0.366,0.472-0.565,0.695
		c-0.311,0.872-0.657,1.743-1.039,2.609c-1.153,2.979-2.773,6.036-4.7,8.871L155.974,146.88z M172.649,144.519
		c-0.054,0.531-0.43,0.978-0.942,1.117c-0.116,0.036-0.232,0.051-0.35,0.051c-0.401,0-0.788-0.188-1.037-0.52l-3.65-4.839
		c-0.169-0.227-0.262-0.502-0.262-0.784l0.005-7.763c0.001-0.457,0.238-0.879,0.628-1.113c0.392-0.232,0.876-0.25,1.278-0.037
		c1.061,0.564,2.121,0.939,3.154,1.123c0.618,0.109,1.071,0.647,1.071,1.278v3.24c0.185,0.072,0.353,0.19,0.489,0.337
		c0.246,0.272,0.366,0.64,0.328,1.004L172.649,144.519z M186.663,139.544c0,0.282-0.092,0.558-0.261,0.784l-3.646,4.839
		c-0.25,0.328-0.637,0.515-1.036,0.515c-0.118,0-0.233-0.014-0.35-0.047c-0.514-0.143-0.889-0.585-0.942-1.116l-0.713-6.905
		c-0.037-0.364,0.081-0.73,0.328-1.004c0.138-0.147,0.304-0.265,0.489-0.337v-3.24c0-0.631,0.452-1.169,1.071-1.278
		c1.031-0.184,2.092-0.559,3.152-1.121c0.403-0.215,0.888-0.197,1.278,0.036c0.391,0.235,0.628,0.655,0.628,1.112V139.544
		L186.663,139.544z M160.691,107.45l-0.07-0.54l-1.262-0.817c-0.367-0.242-0.59-0.649-0.59-1.091v-2.137
		c0-0.717,0.581-1.299,1.298-1.299h0.531v-2.318c0-0.493,0.278-0.942,0.719-1.161c1.79-0.894,5.34-2.391,9.014-2.391
		c2.933,0,5.364,0.973,7.226,2.899c2.322,2.398,4.996,3.614,7.95,3.614c1.673,0,3.404-0.394,5.141-1.173
		c0.401-0.18,0.868-0.143,1.238,0.094c0.173,0.111,0.315,0.263,0.415,0.435h0.709c0.717,0,1.299,0.582,1.299,1.299V105
		c0,0.442-0.224,0.85-0.591,1.091l-1.261,0.817l-0.069,0.538c-0.411,3.104-2.154,7.128-4.662,10.763
		c-3.179,4.609-6.154,6.672-7.695,6.672h-6.981c-1.541,0-4.519-2.062-7.695-6.672C162.843,114.575,161.102,110.554,160.691,107.45z"
		/>
	<path fill="#4CB648" d="M243.234,111.218c-1.086-16.466-5.437-32.202-12.932-46.767c-5.682-11.043-12.988-21.052-21.749-29.804
		L211.601,30c1.529-2.332,1.698-5.301,0.443-7.791c-1.253-2.49-3.741-4.122-6.524-4.279l-33.622-1.911
		c-2.785-0.156-5.439,1.18-6.969,3.511c-1.529,2.331-1.697,5.3-0.442,7.79l15.153,30.076c1.255,2.489,3.741,4.121,6.524,4.279
		c2.782,0.159,5.439-1.18,6.969-3.511l1.526-2.328c14.102,15.699,22.551,35.711,23.954,57.005
		c3.441,52.171-36.204,97.416-88.375,100.855c-52.17,3.441-97.414-36.204-100.855-88.375c-2.335-35.4,15.065-68.854,45.41-87.312
		c5.811-3.537,7.663-11.14,4.128-16.951c-2.398-3.943-6.751-6.205-11.359-5.9c-1.994,0.131-3.875,0.727-5.593,1.771
		C23.741,40.183,1.821,82.338,4.763,126.945c2.1,31.851,16.479,60.976,40.483,82.011c24.006,21.034,54.767,31.463,86.615,29.361
		c31.85-2.101,60.975-16.478,82.01-40.482C234.907,173.829,245.335,143.066,243.234,111.218z"/>
</g>
</svg>
