<?xml version="1.0" encoding="utf-8"?>
<!-- Generator: Adobe Illustrator 13.0.0, SVG Export Plug-In . SVG Version: 6.00 Build 14948)  -->
<!DOCTYPE svg PUBLIC "-//W3C//DTD SVG 1.1//EN" "http://www.w3.org/Graphics/SVG/1.1/DTD/svg11.dtd">
<svg version="1.1" id="Capa_1" xmlns="http://www.w3.org/2000/svg" xmlns:xlink="http://www.w3.org/1999/xlink" x="0px" y="0px"
	 width="250px" height="250px" viewBox="0 0 250 250" enable-background="new 0 0 250 250" xml:space="preserve">
<g>
	<path fill="#4CB648" d="M240.658,189.802l-38.276-38.276c-2.834-2.833-6.529-4.276-10.243-4.336
		c14.36-21.395,12.098-50.712-6.796-69.605c-21.468-21.468-56.399-21.468-77.866,0c-21.468,21.468-21.468,56.399,0,77.867
		c18.893,18.893,48.209,21.156,69.605,6.796c0.059,3.714,1.5,7.408,4.334,10.242l38.277,38.276c5.789,5.79,15.175,5.79,20.965,0
		C246.448,204.977,246.448,195.591,240.658,189.802z M173.363,143.471c-14.862,14.863-39.045,14.863-53.908,0
		c-14.863-14.861-14.863-39.045,0-53.907s39.045-14.862,53.908,0C188.227,104.426,188.227,128.609,173.363,143.471z"/>
	<path fill="#4CB648" d="M40.45,90.479H30.144C23.989,90.479,19,95.468,19,101.623v61.366c0,6.155,4.989,11.144,11.144,11.144H40.45
		c6.154,0,11.144-4.988,11.144-11.144v-61.366C51.594,95.468,46.604,90.479,40.45,90.479z"/>
	<path fill="#4CB648" d="M101.741,73.603V51.476c0-6.154-4.989-11.144-11.144-11.144H80.291c-6.154,0-11.144,4.989-11.144,11.144
		v111.513c0,6.155,4.989,11.144,11.144,11.144h10.307c6.154,0,11.144-4.988,11.144-11.144v-5.507
		c-10.856-11.324-16.821-26.164-16.821-41.939C84.919,99.766,90.884,84.926,101.741,73.603z"/>
	<path fill="#4CB648" d="M140.744,90.479h-10.307c-6.155,0-11.144,4.989-11.144,11.144v33.19c0.969,1.314,2.042,2.566,3.218,3.743
		c6.135,6.137,14.31,9.515,23.015,9.515c2.161,0,4.289-0.209,6.361-0.616v-45.832C151.888,95.468,146.898,90.479,140.744,90.479z"/>
</g>
</svg>
